<svg xmlns="http://www.w3.org/2000/svg" version="1.1" id="Layer_1" x="0px" y="0px" viewBox="0 0 4449.8 3577.3" style="enable-background:new 0 0 4449.8 3577.3;" xmlns:xlink="http://www.w3.org/1999/xlink" xml:space="preserve"> <g> 	<path d="M4449.6,2821.8l0-0.2c-0.8-13.9-3.5-21.6-8.9-32.5c-12.5-25.3-33.6-43.1-61.2-51.5c-10.8-3.3-13.6-3.4-101.7-3.8l-45-0.2   l-0.3-552.9c-0.3-579-0.4-596.1-2.3-610.8c-8.9-67.4-32.9-122.5-75.6-173.1c-12.3-14.6-125.4-126.8-218.2-218.3   c-22.3-22-57.2-56.5-95-93.8l-0.6-0.6c-35.6-35.1-73.7-72.7-106.4-105c-190.4-188-242-238.7-250.8-246.7   c-38.5-34.7-87.6-59.4-138.4-69.6c-1.3-0.3-2.5-0.5-3.6-0.7c-24-5-24-5-212.6-5.2l-208.3-0.3v-68.4c0-129.9-0.8-149.7-8.2-192.1   c-10.8-61.7-35-120.8-74.1-180.6c-22-33.5-42.3-58.2-69.9-85.2c-80.1-78.2-178.6-120-301.3-127.8C2440.2,0.9,2181.2,0,1804,0   c-181.3,0-390,0.2-613.2,0.7h0c-263.4,0.5-295,1-304.2,1.9c-37.9,4-62.1,8-89.2,14.7c-84.8,20.8-156,61.1-217.8,122.9   c-41.9,41.9-73.7,86.2-97.2,135.6c-23.4,49.3-37.8,102-43.8,161.1c-2.7,26-3.8,93.9-3.1,181.7l0.3,38l-152.6,0.2l-198.3,0.2   l-13.3,3.7c-17.5,4.7-29.7,11.4-42.1,23.1l-0.2,0.2C10,702.7-0.2,725.7-0.2,750.6c0,15.9,2.8,27.2,10.4,41.9   c12.2,23.5,35,42,61,49.3l0.2,0.1c8.5,2.3,9.8,2.7,115.1,3c93,0.2,267.4,0.3,615.9,0.3c346.6,0,520.2,0,614-0.3   c107-0.3,108.7-0.7,116.9-2.8c18.9-4.9,34.3-13.5,46.9-26.2c15.9-15.9,25.2-35.5,27.1-56.9c1.8-21.4-4.1-42.4-17.1-60.8l-0.2-0.2   c-12.7-17.6-28.5-29.1-49.7-36.3l-13.5-4.4l-474.2-0.3l-427.7-0.2l0.3-83.5c0.4-114,0.4-114,4.8-138.7l0.3-1.4   c8.5-46.7,27.8-93.6,52.9-128.6c26.5-36.9,70.4-70.8,117.3-90.8c30.7-13,63.8-20.6,101.1-23.1c33.7-1.1,1509.6-1.1,1546.9,0   c50.2,3.8,89.1,14.2,130.1,34.6c41.5,20.6,70.8,46.1,98.2,85c32.8,46.8,50.5,99,54.2,159.4c0.5,15.9,1,328.1,1,1157.6   c0,795.6-0.1,1028.7-0.6,1105.9c-59,0.5-203.4,0.5-515.6,0.5h-530c-0.6-1.6-1.1-3.1-1.6-4.3c-9.1-25.4-16.9-43.6-30.9-71.9   c-25.6-52-54.5-96-93.4-142.5c-34.1-40.7-66.6-71.1-102.1-95.7c-59.3-41.3-123-72.6-189.2-93.2c-78.5-24.4-161.4-32.8-246.3-25.1   c-84.8,7.7-166,30.9-241.4,69.2c-58.2,29.5-107.8,65.4-155.8,112.8c-0.2-51.5-0.3-115.6-0.3-185.1l-0.3-328.4l-94.1-0.5l-94.4-0.3   l0.3,520.9c0.2,434.6,0.7,486.8,1.7,496.5c5.1,48,11.8,84,23.1,124.2c18.8,66.6,47,128.1,83.9,182.8s83.4,104.3,138.4,147.4   c96.1,75.2,202.7,120,317.1,133.1c23,2.6,46.8,4,70.8,4c55.2,0,110.9-6.9,165.7-20.5c106.5-26.6,201.7-80.2,283-159.3   c73-70.8,124.6-149.2,157.7-239.9c14.8-40.4,25.9-84.7,32.3-127.8c5.4-35.9,7.7-66.4,8-106.2h1015.1c1,26,2.4,57.7,3.1,67.3   c5.5,77.6,27.9,159.4,63,230.4c31.4,63.5,70.6,117.2,123.3,168.8c48.6,47.7,102,86.9,158.7,116.7c57,29.9,117.7,50.5,180.6,61.2   c36,6.1,66.9,8.6,106.4,8.6c140.9,0,266.8-39.6,374.3-117.6c44.7-32.4,90.1-74.7,124.6-116.2c67.3-80.9,112.1-175.4,133.1-280.9   c9.4-47.1,13.4-86.9,13.8-139.4l151.9-0.2l197.2-0.3l15.2-4.3c18.3-5.1,30.9-10.7,45.1-25.6l0.2-0.2   C4442.2,2871.9,4451,2848.3,4449.6,2821.8z M3959.8,1475.6h-1039V845.6l380.1,0.5l5.6,1.2c22.4,5.1,40.2,13.6,57.5,27.5   c4.7,4.3,34,33.1,74.3,73.9c104.8,106.2,310.7,314.4,440.6,445.5C3902.3,1417.8,3933.8,1449.5,3959.8,1475.6z M3651,3297.9   c-68,51.5-151.9,82.2-242.5,88.8c-16,1.2-55.2,1.2-71.2,0c-98.7-7.2-186.1-41.7-259.8-102.6c-13.4-11.2-42.5-40.5-52.9-53.2   c-52.3-64.3-85-138.4-97.2-220.3c-3.8-25.5-4.9-41.1-5-72.5c0-32.6,0.7-43.9,4.6-70.8c16.6-116.9,76.6-219.6,168.9-289.2   c70.6-53.3,154.6-84.1,249.5-91.5c4.8-0.4,12.2-0.6,20.5-0.6c16.6,0,36.9,0.7,47.7,1.8l0.1,0c143.6,15.1,263.3,85.3,337.1,197.8   c40.1,61.3,63.3,129,70.9,206.9c1.9,18.8,2.1,65.9,0.5,84c-5.4,61.5-19.5,114.3-44.3,166.3   C3749.4,3202.7,3704.3,3257.7,3651,3297.9z M3355.5,2297.5L3355.5,2297.5c-160.3,9.4-292.4,60.6-403.8,156.4   c-9.8,8.5-19.7,17.7-29.6,27.5c-0.2-75.8-0.2-199-0.2-375.2v-440.7l560.8,0.2l560.7,0.3l0.3,531.3v0l0.2,536.2h-62.2   c-40.5-113.6-112.5-219.3-198.6-291.2c-62.7-52.5-139.9-93-223.1-117.1C3485.3,2303.7,3414.7,2294.1,3355.5,2297.5z M1072.9,2486.8   c13.4,0,27,0.3,33.9,0.7c76.8,5,146.6,26.2,207.5,63.1c117.7,71.3,194.7,194.4,211.2,337.9c5,43.4,3.9,78.9-4.2,126.4l0,0   c-7.9,46.8-22.7,91.7-43.9,133.6c-21.2,41.7-48.2,79.1-80.3,111.3c-68.4,68.6-157,111.5-256.2,124c-42.9,5.4-94.4,4.9-137.8-1.4   c-72.9-10.5-144.6-39.9-202-82.7c-31.6-23.6-61.9-53.7-85.2-84.6c-34.4-45.7-59.4-97.9-74.4-155.3c-15-57.6-19.2-117.4-12.3-177.8   c17.1-150.5,101.4-275.8,231.2-343.9c57.1-29.9,119.4-46.6,190.5-51C1055.1,2486.9,1063.1,2486.8,1072.9,2486.8z"></path> 	<path d="M290.2,1278.8c8.5,2.4,9.8,2.7,133.2,3c108,0.2,307.7,0.3,706.5,0.3c826.7,0,826.7,0,839.1-2.7l0.6-0.1   c20-4.7,33.8-12.4,47.6-26.3c13.2-13.2,20.6-25.6,24.9-41.6l0-0.2c12.6-48.5-17.4-98.4-68.3-113.6c-8.9-2.7-9.8-2.9-132-3.2   c-106.9-0.2-306.5-0.3-705.5-0.4c-224.2,0-431.6,0-584,0.1c-242.4,0.2-243.8,0.4-247.8,1l-0.1,0c-11.1,1.7-29.1,7-40.5,13.6   l-0.3,0.2c-13.4,8-27,22.5-34.5,36.8c-16.3,30.7-14.5,63.8,4.9,93C247.6,1259,265.9,1272.1,290.2,1278.8z"></path> 	<path d="M1196.9,1719.5c111.8,0,179,0,224.5-0.2c97.1-0.2,99.7-0.7,108.3-2.5c21.2-4.2,35.9-12,50.5-26.9   c18.1-18.2,27.9-41.2,27.7-64.7c-0.2-23.5-10.4-46.5-28.6-64.8c-13-13.2-26.5-21-44.9-26c-8.2-2.3-9.7-2.7-114.6-3   c-90.5-0.2-256.7-0.3-588.4-0.3c-50.9,0-100.9,0-149.2,0c-291.9,0-551.3,0.2-566.6,0.5l-0.1,0c-27.8,0.6-34.4,0.8-47.8,4.8   l-0.5,0.1c-24.2,7.6-42.7,22.2-55.1,43.4c-15.8,27.2-16.3,61.9-1.4,88.3c12.7,22.4,31,37.9,54.6,46l14.6,4.9l719.3,0.3   C969.1,1719.4,1098.3,1719.5,1196.9,1719.5z"></path> </g> </svg>