<svg xmlns="http://www.w3.org/2000/svg" viewBox="0 0 408.82 393.32"><g id="Layer_2" data-name="Layer 2"><g id="Layer_1-2" data-name="Layer 1"><path d="M0,187.11V88.91C3.63,80.6,10.15,78.17,18.9,78.37c18.61.42,37.25.13,55.87.13h4.66c-.66-1.59-1.09-2.67-1.55-3.74a52,52,0,0,1-3.16-33.15c7.1-29.9,35.34-46.78,66.52-40.19,18.19,3.85,32.94,13.39,44.8,27.25,7,8.13,12.79,17.21,18.62,25.16,5.78-7.93,11.45-17,18.37-24.95C238.41,11.19,257.49.43,281.62.09c34.79-.49,60.78,31.5,52.82,65.34-1,4.33-2.78,8.5-4.31,13.07h4.37c19.83,0,39.65,0,59.47,0,9,0,14.79,5.82,14.81,14.75q.09,44.91,0,89.8c0,9.16-5.75,14.84-15,15.06-3.41.09-6.83,0-10.63,0V325.83c0,17.43,0,34.86,0,52.29,0,7.41-3.75,12.87-10.08,14.56a29.8,29.8,0,0,1-7.51.62q-160.85,0-321.69,0c-1.6,0-3.2,0-4.79-.12-6-.55-10.2-3.73-12-9.48a25.1,25.1,0,0,1-.79-7.46q-.06-86.42,0-172.83v-5.32C15.5,198.26,4.51,200,0,187.11Zm190.41,178V198.39H54.57V365.14ZM219,198.39V365.06h136V198.39Zm-28.62-28.45V106.8h-162v63.14Zm28.52-.16H380.61v-63H218.87Zm5.56-91.39c20.68,0,40.34,0,60,0a13.6,13.6,0,0,0,2.37-.3c10.28-1.78,17.08-7.64,19.93-17.65s.24-18.69-7.34-25.69c-8.31-7.69-18.27-8-28.4-5C246.52,36.92,235.29,56.88,224.43,78.39Zm-39.82.07c-8-17.09-17.17-32.43-32.83-42.79a44.08,44.08,0,0,0-24-7.53C113.59,27.91,102,38.6,101.44,52.51A24.57,24.57,0,0,0,126,78.38C145.26,78.72,164.53,78.46,184.61,78.46Z"></path></g></g></svg>