<svg xmlns="http://www.w3.org/2000/svg" version="1.1" id="Layer_1" x="0px" y="0px" viewBox="0 0 98 98" style="enable-background:new 0 0 98 98" xmlns:xlink="http://www.w3.org/1999/xlink" xml:space="preserve"> <path d="M97.4,23.2L91,12.5L85,1.9C84.3,0.7,83,0,81.6,0L16.9-0.2c0,0,0,0,0,0c-1.4,0-2.7,0.7-3.4,1.9l-1.6,2.6l0,0  C11,5.7,9.5,8.2,7.9,10.9c-1.1,1.8-2.2,3.8-3.2,5.5l-4.2,7C0.2,24.1,0,24.8,0,25.5l0.2,35.1L0.5,94c0,2.2,1.8,4,4,4h89  c2.2,0,4-1.8,4-4l0.3-33.5L98,25.3C98,24.6,97.8,23.9,97.4,23.2z M41.4,21.8l0.5-4.1c0.6-5.6,1.1-10.1,1.2-11.9h11.6  c0.3,2.5,1,9.6,1.3,11.9l0.5,4.1H41.4z M76.3,21.8H63.1l-0.4-2.8c-0.2-1.3-0.5-4.2-0.8-6.7c-0.1-0.9-0.2-1.8-0.3-2.5l-0.5-4h18.9  l4.6,8.2l0,0c2.3,3.9,3.7,6.2,4.4,7.5C87,21.7,82.5,21.8,76.3,21.8z M54.7,39.3H41.3V28.2h15.5v9.1C56.7,38.4,55.8,39.3,54.7,39.3z   M58.7,45.1c2.2,0,3.9-1.7,4-3.9l0.5-13.1h28.5v64H6.4v-64h28.5l0.5,13.1c0.1,2.2,1.8,3.9,4,3.9H58.7z M9,21.5  c0.7-1.2,2.1-3.6,4.4-7.5l4.6-8.2H37l-0.5,4l0,0c-0.1,0.8-0.2,1.6-0.3,2.5c-0.3,2.5-0.6,5.3-0.8,6.7l-0.4,2.8H21.7  C15.5,21.8,11,21.7,9,21.5z"></path> </svg>